<svg xmlns="http://www.w3.org/2000/svg" width="56" height="104" viewBox="0 0 56 104">
  <defs>
    <radialGradient id="nucleoPorta" cx="50%" cy="45%" r="55%">
      <stop offset="0%" stop-color="#fff0fb" stop-opacity="1"/>
      <stop offset="55%" stop-color="#f04fd8" stop-opacity="0.7"/>
      <stop offset="100%" stop-color="#f04fd8" stop-opacity="0"/>
    </radialGradient>
  </defs>
  <!-- moldura em arco -->
  <path d="M6 100 L6 34 A22 22 0 0 1 50 34 L50 100 Z" fill="#3a1140"/>
  <path d="M12 100 L12 34 A16 16 0 0 1 44 34 L44 100 Z" fill="#20091f"/>
  <!-- pedras da moldura -->
  <path d="M6 100 L6 34 A22 22 0 0 1 50 34 L50 100 L44 100 L44 34 A16 16 0 0 0 12 34 L12 100 Z" fill="#4a1a52"/>
  <!-- núcleo de luz -->
  <ellipse cx="28" cy="60" rx="18" ry="30" fill="url(#nucleoPorta)"/>
  <path d="M20 40 A12 12 0 0 1 36 40 L36 92 L20 92 Z" fill="#ef6fe0" opacity="0.85"/>
</svg>
